<?xml version="1.0" encoding="UTF-8"?>
<svg xmlns="http://www.w3.org/2000/svg" xmlns:xlink="http://www.w3.org/1999/xlink" width="1032.9pt" height="1377.1pt" viewBox="0 0 1032.9 1377.1" version="1.1">
<defs>
<clipPath id="clip1">
  <path d="M 0 0 L 1032.898438 0 L 1032.898438 1377.101563 L 0 1377.101563 Z M 0 0 "/>
</clipPath>
</defs>
<g id="surface1">
<path style=" stroke:none;fill-rule:evenodd;fill:rgb(100%,82.03125%,0%);fill-opacity:1;" d="M 516.5 70.75 C 487.332031 78.230469 458.527344 87.261719 429.707031 95.929688 C 360.832031 116.660156 292.433594 139.128906 225.128906 164.53125 C 172.804688 184.28125 119.476563 205.628906 69.929688 232.140625 C 74.082031 390.53125 78.46875 548.980469 88.371094 707.136719 C 91.871094 763.027344 96.09375 818.914063 102.710938 874.53125 C 107.242188 912.601563 112.738281 950.878906 121.792969 988.167969 C 137.921875 1054.570313 181.894531 1112.972656 232.195313 1157.824219 C 311.644531 1228.671875 414.996094 1275.132813 516.5 1305.441406 C 618.003906 1275.132813 721.355469 1228.671875 800.804688 1157.824219 C 851.105469 1112.972656 895.078125 1054.570313 911.210938 988.167969 C 920.261719 950.878906 925.761719 912.601563 930.289063 874.53125 C 936.910156 818.914063 941.128906 763.027344 944.628906 707.136719 C 954.53125 548.980469 958.921875 390.53125 963.070313 232.140625 C 913.519531 205.628906 860.195313 184.28125 807.871094 164.53125 C 740.566406 139.128906 672.167969 116.660156 603.292969 95.929688 C 574.472656 87.261719 545.667969 78.230469 516.5 70.75 Z M 516.5 70.75 "/>
<g clip-path="url(#clip1)" clip-rule="nonzero">
<path style=" stroke:none;fill-rule:evenodd;fill:rgb(10.594177%,9.812927%,9.423828%);fill-opacity:1;" d="M 516.5 1377.050781 C 219.511719 1293.820313 87.101563 1136.816406 54.941406 1004.402344 C 22.785156 871.988281 11.4375 626.074219 0.0859375 192.890625 C 162.765625 92.640625 514.609375 -0.0585938 516.5 -0.0585938 C 518.390625 -0.0585938 870.230469 92.640625 1032.910156 192.890625 C 1021.558594 626.074219 1010.210938 871.988281 978.058594 1004.402344 C 945.898438 1136.816406 813.488281 1293.820313 516.5 1377.050781 Z M 990.238281 216.539063 C 936.140625 186.019531 874.28125 161 817.316406 139.5 C 749.527344 113.921875 680.378906 91.191406 611 70.320313 C 580.429688 61.121094 547.839844 50.921875 516.5 43.160156 C 485.160156 50.921875 452.570313 61.121094 422 70.320313 C 352.621094 91.191406 283.472656 113.921875 215.683594 139.5 C 158.722656 161 96.859375 186.019531 42.761719 216.539063 C 47.046875 380.460938 51.429688 545.230469 61.667969 708.808594 C 65.195313 765.128906 69.480469 821.648438 76.144531 877.691406 C 80.78125 916.621094 86.535156 956.355469 95.796875 994.480469 C 113.242188 1066.328125 159.949219 1129.246094 214.390625 1177.792969 C 298.714844 1252.988281 408.578125 1301.914063 516.5 1333.332031 C 624.421875 1301.914063 734.285156 1252.988281 818.609375 1177.792969 C 873.050781 1129.246094 919.761719 1066.328125 937.199219 994.480469 C 946.460938 956.355469 952.21875 916.621094 956.859375 877.691406 C 963.519531 821.648438 967.808594 765.128906 971.328125 708.808594 C 981.570313 545.230469 985.949219 380.460938 990.238281 216.539063 Z M 990.238281 216.539063 "/>
</g>
<path style=" stroke:none;fill-rule:evenodd;fill:rgb(10.594177%,9.812927%,9.423828%);fill-opacity:1;" d="M 86.0625 247.421875 C 86.0625 247.421875 99.289063 243.378906 103.695313 243.378906 C 138.414063 225.921875 165.25 279.359375 172.382813 295.171875 C 179.511719 310.980469 212.785156 343.648438 227.480469 356.878906 C 242.171875 370.101563 261.640625 406.460938 261.640625 406.460938 C 261.640625 406.460938 275.59375 429.609375 280.738281 416.378906 C 285.882813 403.160156 313.0625 378.921875 320.777344 376.339844 C 311.59375 336.308594 301.675781 313.171875 302.777344 295.898438 C 303.878906 278.640625 309.023438 258.070313 320.777344 236.398438 C 332.53125 214.730469 332.898438 202.96875 354.203125 182.039063 C 375.507813 161.101563 419.21875 142.371094 436.847656 138.328125 C 455.210938 113.71875 470.273438 100.859375 491.578125 100.859375 C 496.351563 94.980469 494.882813 94.621094 501.492188 95.71875 C 508.105469 96.820313 510.675781 100.121094 518.390625 100.859375 C 526.101563 101.589844 541.898438 100.488281 551.082031 104.898438 C 572.019531 112.25 590.015625 126.570313 592.953125 135.390625 C 626.011719 144.199219 659.4375 174.691406 674.863281 192.691406 C 690.292969 210.691406 691.761719 229.058594 692.863281 243.378906 C 693.964844 257.699219 698.007813 295.539063 695.800781 310.230469 C 738.410156 332.269531 769.265625 348.058594 805.996094 364.589844 C 842.726563 381.121094 869.171875 396.910156 876.148438 413.808594 C 883.128906 430.710938 900.03125 529.511719 905.898438 547.878906 C 911.78125 566.246094 915.820313 609.953125 922.800781 623.910156 C 929.78125 637.871094 937.128906 661.378906 937.128906 661.378906 L 917.660156 668.355469 C 917.660156 668.355469 918.019531 679.007813 923.539063 681.945313 C 929.039063 684.886719 931.25 697.007813 936.019531 701.046875 C 940.800781 705.085938 958.789063 720.882813 969.449219 730.066406 C 980.101563 739.25 982.671875 761.65625 966.511719 771.203125 C 950.351563 780.753906 929.039063 767.898438 917.660156 744.023438 C 906.269531 720.148438 896.71875 709.863281 881.289063 709.496094 C 865.867188 709.128906 862.191406 696.640625 862.191406 696.640625 C 862.191406 696.640625 851.542969 673.132813 842.359375 672.765625 C 833.175781 672.398438 810.035156 674.234375 810.035156 672.03125 C 810.035156 669.828125 814.808594 629.789063 804.890625 612.527344 C 794.976563 595.261719 789.464844 559.265625 788.363281 549.351563 C 787.261719 539.429688 772.570313 532.449219 769.261719 513.71875 C 765.957031 494.988281 765.222656 490.578125 765.222656 490.578125 C 765.222656 490.578125 757.507813 493.519531 752.734375 482.5 C 747.960938 471.480469 734.371094 464.128906 718.207031 456.421875 C 702.046875 448.699219 698.007813 444.660156 692.496094 443.929688 C 686.984375 443.191406 681.109375 442.460938 669.355469 440.621094 C 657.601563 438.789063 651.726563 439.148438 646.214844 447.230469 C 640.703125 455.320313 623.074219 473.320313 638.5 489.109375 C 653.929688 504.898438 677.070313 522.53125 677.070313 522.53125 C 670.824219 532.449219 667.886719 533.921875 657.601563 526.210938 C 647.316406 518.5 638.132813 501.960938 635.5625 503.429688 C 632.992188 504.898438 648.417969 529.140625 648.417969 529.140625 C 648.417969 529.140625 644.011719 540.53125 653.929688 542 C 663.84375 543.46875 683.679688 548.25 685.882813 556.328125 C 688.085938 564.40625 692.496094 570.652344 692.496094 570.652344 L 714.167969 583.140625 C 714.167969 583.140625 706.085938 593.792969 712.332031 607.75 C 715.550781 614.945313 719.351563 627.210938 721.175781 640.171875 C 726.640625 679.015625 703.6875 703.878906 680.007813 732.636719 C 680.007813 732.636719 695.800781 785.527344 661.273438 817.484375 C 626.746094 849.441406 599.566406 849.441406 599.566406 849.441406 C 599.566406 849.441406 596.996094 843.195313 578.996094 837.6875 C 560.996094 832.179688 541.53125 811.609375 541.53125 811.609375 C 541.53125 811.609375 527.203125 800.21875 509.574219 809.035156 C 491.945313 817.851563 452.273438 848.707031 387.257813 852.011719 C 322.246094 855.320313 273.027344 845.035156 228.949219 822.996094 C 184.871094 800.957031 208.746094 769.367188 186.339844 771.570313 C 163.933594 773.777344 162.097656 760.917969 156.585938 749.53125 C 151.078125 738.148438 140.425781 717.941406 151.078125 702.148438 C 161.730469 686.355469 162.097656 672.398438 172.75 666.152344 C 183.402344 659.90625 190.011719 652.195313 185.605469 648.890625 C 181.199219 645.582031 167.976563 658.074219 167.976563 658.074219 C 167.976563 658.074219 163.566406 658.4375 160.628906 652.929688 C 157.691406 647.421875 172.382813 642.277344 172.382813 642.277344 C 172.382813 642.277344 196.257813 626.484375 197.359375 615.097656 C 198.460938 603.710938 197.726563 589.386719 198.828125 582.40625 C 199.929688 575.425781 188.910156 565.875 185.972656 559.265625 C 183.035156 552.652344 181.933594 564.40625 169.445313 561.101563 C 156.953125 557.796875 89 529.390625 84.496094 518.890625 C 79.992188 508.371094 90.003906 492.359375 99.511719 493.859375 C 100.011719 485.351563 108.019531 482.351563 116.027344 485.351563 C 124.035156 488.359375 131.042969 491.859375 129.539063 483.851563 C 128.039063 475.839844 113.527344 451.320313 103.515625 450.320313 C 91.503906 429.300781 84.996094 419.78125 80.492188 413.78125 C 75.988281 407.78125 64.976563 385.75 61.972656 373.738281 C 58.96875 361.730469 52.464844 346.210938 47.960938 330.199219 C 44.972656 319.570313 39.777344 304.761719 40.277344 291.171875 C 41.203125 265.820313 63.175781 251.101563 86.0625 247.421875 Z M 86.0625 247.421875 "/>
<path style=" stroke:none;fill-rule:evenodd;fill:rgb(100%,100%,100%);fill-opacity:1;" d="M 69.363281 259.890625 C 69.363281 259.890625 59.519531 288.621094 68.558594 303.890625 C 72.578125 282.390625 82.023438 267.121094 95.484375 259.890625 C 108.949219 252.660156 132.457031 242.410156 147.527344 267.121094 C 162.597656 291.839844 174.65625 315.75 197.359375 335.238281 C 220.066406 354.730469 250.40625 393.308594 239.355469 441.730469 C 229.308594 401.550781 213.835938 390.300781 200.976563 386.28125 C 240.90625 442.421875 218.660156 525.730469 204.59375 550.640625 C 210.824219 489.359375 193.542969 460.429688 193.542969 460.429688 C 199.167969 502.820313 182.890625 528.140625 182.890625 528.140625 C 179.074219 477.300781 138.6875 442.339844 138.6875 442.339844 C 138.6875 442.339844 111.0625 393.359375 101.585938 388.621094 C 107.679688 361.539063 107.679688 334.808594 106.664063 329.390625 C 102.265625 347.671875 94.480469 363.238281 94.480469 363.238281 C 91.097656 343.949219 93.128906 338.191406 98.878906 328.71875 C 104.632813 319.238281 108.019531 314.839844 107.003906 310.441406 C 95.832031 320.929688 89.0625 323.640625 88.050781 334.128906 C 90.417969 314.5 97.1875 311.800781 96.171875 296.570313 C 79.929688 309.769531 80.265625 334.808594 80.265625 342.25 C 80.265625 349.699219 85.007813 362.21875 79.253906 372.710938 C 69.4375 354.78125 55.5625 339.890625 55.5625 339.890625 C 55.5625 339.890625 63.007813 336.160156 68.085938 344.960938 C 60.640625 327.359375 60.636719 327.03125 61.316406 320.929688 C 67.40625 329.730469 71.46875 330.75 71.46875 330.75 C 71.46875 330.75 72.824219 323.640625 55.222656 311.800781 C 39.828125 301.441406 48.519531 266.519531 69.363281 259.890625 Z M 780.027344 367.839844 C 777.417969 361.058594 758.902344 364.710938 758.902344 364.710938 C 758.902344 364.710938 755.511719 360.28125 735.429688 360.539063 C 747.167969 354.800781 749.511719 351.410156 749.511719 351.410156 C 733.578125 347.070313 715.019531 346.871094 696.042969 356.371094 C 696.042969 356.371094 701.261719 350.890625 708.042969 338.371094 C 691.089844 338.371094 674.132813 358.710938 661.351563 370.710938 C 665.265625 372.28125 671.003906 373.058594 682.742188 367.058594 C 680.136719 371.5 680.914063 372.539063 666.050781 379.839844 C 651.183594 387.140625 641.792969 390.269531 616.230469 412.179688 C 590.667969 434.089844 586.496094 431.21875 546.59375 450.78125 C 549.984375 444.269531 604.496094 409.839844 618.578125 397.578125 C 632.664063 385.320313 635.53125 372.019531 664.484375 339.410156 C 693.4375 306.808594 683.523438 282.03125 683.523438 282.03125 C 683.523438 282.03125 672.046875 315.160156 650.660156 336.539063 C 629.269531 357.929688 598.496094 364.96875 579.457031 370.449219 C 560.414063 375.929688 562.242188 385.320313 573.71875 401.488281 C 537.460938 396.789063 546.070313 380.101563 553.894531 370.449219 C 561.71875 360.800781 634.75 349.058594 651.183594 328.71875 C 667.613281 308.371094 687.4375 260.121094 680.132813 228.300781 C 672.828125 196.480469 646.335938 205.789063 646.335938 205.789063 C 641.386719 157.328125 597.878906 146.648438 597.878906 146.648438 L 602.046875 188.859375 C 601.523438 227.941406 589.28125 232.109375 580.421875 245.660156 C 571.5625 259.199219 572.867188 263.371094 572.867188 263.371094 C 572.867188 263.371094 575.210938 255.558594 566.09375 249.558594 C 563.226563 257.121094 556.453125 256.339844 551.242188 272.75 C 551.765625 268.839844 548.117188 262.851563 542.386719 265.980469 C 519.71875 284.210938 504.347656 278.21875 504.347656 278.21875 C 513.644531 276.558594 518.289063 272.871094 524.148438 264.410156 C 526.492188 261.03125 525.96875 254.25 521.019531 253.988281 C 516.070313 253.730469 519.980469 255.039063 511.121094 258.941406 C 502.261719 262.851563 507.210938 266.5 503.304688 267.019531 C 499.394531 267.539063 504.347656 259.71875 494.1875 258.679688 C 484.023438 257.640625 480.898438 268.578125 473.34375 269.359375 C 465.789063 270.140625 469.433594 255.039063 469.433594 255.039063 C 469.433594 255.039063 463.183594 258.679688 454.324219 258.679688 C 445.464844 258.679688 423.320313 211.789063 424.363281 195.890625 C 425.40625 180 428.011719 181.039063 434.523438 151.601563 C 411.59375 153.160156 402.738281 170.621094 383.980469 184.949219 C 365.21875 199.28125 325.878906 219.339844 338.90625 230.019531 C 351.933594 240.699219 406.125 187.039063 406.125 187.039063 C 385.019531 232.109375 326.660156 248.261719 333.957031 268.578125 C 341.253906 288.898438 379.550781 300.890625 400.132813 313.648438 C 420.714844 326.421875 419.152344 351.691406 419.152344 351.691406 C 415.558594 334.011719 385.222656 318.890625 368.664063 313.210938 C 358.078125 309.589844 345.269531 305.941406 324.054688 295.421875 C 324.316406 310.269531 339.6875 327.460938 363.917969 339.441406 C 388.148438 351.429688 387.367188 343.359375 417.847656 361.328125 C 396.226563 345.441406 341.511719 356.121094 333.433594 348.820313 C 325.359375 341.53125 320.667969 342.308594 320.667969 342.308594 C 320.667969 342.308594 317.804688 368.371094 350.371094 371.488281 C 382.9375 374.621094 418.890625 374.621094 423.582031 365.761719 C 428.269531 356.898438 422.796875 319.390625 420.714844 303.75 C 418.628906 288.121094 416.546875 271.191406 419.671875 262.851563 C 432.699219 294.371094 435.042969 307.398438 432.4375 329.550781 C 429.832031 351.691406 436.605469 374.101563 441.035156 388.171875 C 441.035156 388.171875 451.382813 441.21875 496.835938 456.761719 C 510.886719 461.558594 518.375 463.53125 522.402344 464.140625 C 513 469.578125 500.960938 479 503.5625 490.558594 C 507.734375 509.058594 513.464844 514.011719 514.246094 523.378906 C 515.027344 532.761719 517.113281 540.839844 525.191406 548.390625 C 512.421875 542.398438 505.910156 534.589844 505.910156 521.820313 C 505.910156 509.058594 498.355469 508.53125 496.007813 514.78125 C 493.664063 521.039063 487.152344 547.621094 481.941406 561.164063 C 476.730469 574.710938 476.46875 592.6875 477.511719 594.25 C 478.554688 595.8125 472.558594 607.535156 466.828125 612.226563 C 447.289063 587.996094 425.664063 563.765625 425.664063 563.765625 C 425.664063 563.765625 419.414063 556.472656 414.984375 561.941406 C 414.984375 561.941406 410.554688 569.238281 417.328125 574.972656 C 424.101563 580.703125 457.972656 619.261719 457.972656 619.261719 C 457.972656 619.261719 461.359375 622.648438 466.308594 622.648438 C 467.351563 629.683594 467.089844 635.933594 470.738281 637.238281 C 474.382813 638.539063 478.816406 639.84375 481.679688 642.1875 C 484.546875 644.535156 489.757813 644.792969 493.402344 642.96875 C 497.050781 641.144531 510.078125 641.144531 515.289063 643.75 C 518.9375 640.105469 517.894531 636.195313 517.894531 636.195313 C 517.894531 636.195313 525.1875 640.367188 527.792969 630.726563 C 517.371094 626.816406 496.53125 623.429688 489.234375 618.21875 C 526.230469 617.957031 542.386719 614.570313 546.292969 605.191406 C 550.199219 595.8125 540.039063 589.300781 540.039063 589.300781 C 540.039063 589.300781 526.230469 580.179688 538.996094 575.230469 C 551.761719 570.28125 565.570313 577.316406 569.738281 558.554688 C 573.910156 539.800781 580.945313 516.609375 587.976563 520 C 583.289063 526.769531 581.207031 533.28125 587.71875 534.328125 C 594.230469 535.371094 606.476563 527.289063 610.382813 514.011719 C 611.949219 525.988281 609.339844 527.289063 607.519531 532.5 C 605.695313 537.710938 608.039063 546.828125 612.46875 548.921875 C 613.769531 556.992188 610.644531 559.339844 610.644531 559.339844 C 610.644531 559.339844 596.3125 553.347656 592.144531 549.179688 C 587.976563 545.011719 581.203125 546.050781 578.335938 548.140625 C 575.472656 550.21875 571.042969 556.214844 580.160156 566.113281 C 589.28125 576.011719 648.160156 609.359375 660.40625 647.136719 C 612.726563 595.8125 581.988281 571.84375 573.648438 578.097656 C 565.3125 584.347656 565.570313 592.164063 575.734375 596.855469 C 585.894531 601.542969 619.5 617.699219 635.914063 643.75 C 610.644531 621.085938 565.050781 594.511719 560.621094 599.199219 C 554.628906 615.875 540.558594 636.976563 529.878906 637.757813 C 532.484375 642.1875 539.519531 640.625 547.59375 643.230469 C 555.671875 645.835938 559.839844 647.660156 559.839844 647.660156 C 559.839844 647.660156 573.390625 626.292969 575.734375 621.605469 C 578.078125 616.917969 579.121094 615.351563 579.121094 615.351563 C 579.121094 615.351563 642.429688 649.742188 643.210938 682.308594 C 637.738281 674.753906 634.613281 669.542969 627.058594 669.542969 C 619.503906 669.542969 612.207031 664.855469 608.039063 663.550781 C 603.871094 662.25 596.835938 663.550781 604.128906 668.242188 C 611.425781 672.929688 619.242188 679.445313 619.242188 685.4375 C 626.535156 681.007813 632.789063 681.789063 633.570313 687.78125 C 645.816406 691.691406 644.25 691.949219 646.597656 684.132813 C 652.070313 687 647.640625 694.554688 647.640625 694.554688 C 647.640625 694.554688 649.984375 698.460938 655.457031 701.070313 C 660.925781 703.675781 665.617188 706.277344 665.878906 710.96875 C 686.980469 712.011719 698.707031 697.425781 704.695313 681.53125 C 710.6875 665.636719 700.789063 621.347656 667.441406 604.933594 C 688.804688 645.054688 682.03125 663.03125 679.164063 670.585938 C 673.171875 624.730469 649.203125 592.949219 616.117188 576.792969 C 633.3125 569.238281 651.027344 563.246094 651.027344 563.246094 C 651.027344 563.246094 661.449219 559.078125 656.496094 553.34375 C 651.546875 547.609375 636.699219 554.386719 634.875 560.121094 C 632.527344 550.21875 632.527344 549.699219 632.527344 549.699219 C 632.527344 549.699219 626.277344 558.554688 618.199219 558.554688 C 624.714844 547.089844 627.054688 544.230469 627.316406 538.230469 C 627.578125 532.238281 628.621094 512.179688 620.542969 502.28125 C 612.46875 492.378906 628.621094 478.308594 627.839844 473.878906 C 627.058594 469.449219 613.769531 476.230469 613.769531 476.230469 C 613.769531 476.230469 577.292969 488.46875 580.421875 500.199219 C 583.546875 511.921875 598.140625 504.621094 598.140625 504.621094 C 586.675781 510.878906 575.734375 511.140625 573.648438 498.628906 C 571.5625 486.128906 592.929688 477.011719 592.929688 477.011719 C 592.929688 477.011719 635.394531 461.121094 633.570313 453.300781 C 631.746094 445.480469 610.382813 446.789063 610.382813 446.789063 C 610.382813 446.789063 532.222656 468.410156 536.652344 479.359375 C 541.082031 490.300781 569.738281 496.808594 569.21875 515.308594 C 557.753906 499.160156 533.265625 489.769531 528.578125 487.171875 C 523.886719 484.570313 518.414063 478.828125 527.011719 472.058594 C 530.382813 469.410156 531.988281 466.828125 532.699219 464.679688 C 546.1875 470.019531 581.710938 449.238281 596.320313 442.839844 C 611.160156 436.351563 673.082031 402.5 691.167969 376.980469 C 666.585938 408.75 657.542969 421.511719 657.542969 421.511719 C 657.542969 421.511719 652.90625 427.078125 660.09375 430.320313 C 667.28125 433.570313 673.777344 421.511719 680.035156 422.441406 C 686.296875 423.359375 683.980469 432.410156 702.070313 433.570313 C 720.15625 434.730469 761.628906 432.339844 803.191406 414.070313 C 791.773438 426.859375 794.515625 425.488281 778.984375 430.519531 C 763.453125 435.539063 746.097656 443.761719 765.738281 444.21875 C 785.378906 444.671875 795.429688 436 812.785156 443.308594 C 795.429688 447.410156 796.34375 452.890625 773.046875 452.890625 C 749.75 452.890625 740.617188 450.609375 740.617188 450.609375 C 740.617188 450.609375 742.898438 463.398438 765.28125 472.53125 C 768.9375 466.140625 771.21875 463.398438 771.21875 463.398438 C 771.21875 463.398438 775.785156 484.871094 787.207031 490.351563 C 777.613281 498.109375 783.554688 513.640625 791.316406 530.550781 C 799.082031 547.441406 801.367188 577.59375 822.378906 595.863281 C 828.316406 575.308594 827.859375 568 823.292969 559.320313 C 837.449219 580.332031 832.882813 585.8125 836.082031 603.171875 C 839.277344 620.53125 847.042969 639.253906 854.808594 643.824219 C 836.996094 645.652344 829.6875 642.910156 829.6875 642.910156 C 829.6875 642.910156 833.796875 656.15625 853.894531 659.355469 C 873.988281 662.550781 882.21875 666.664063 882.21875 666.664063 C 873.539063 667.574219 861.660156 668.945313 861.660156 668.945313 C 861.660156 668.945313 867.140625 680.820313 886.320313 673.511719 C 905.511719 666.207031 915.558594 654.328125 915.558594 644.28125 C 915.558594 634.230469 892.71875 594.492188 892.71875 568.914063 C 892.71875 543.339844 889.519531 500.859375 877.191406 487.609375 C 864.855469 474.359375 865.769531 472.078125 865.769531 467.058594 C 877.640625 478.019531 879.019531 474.820313 879.019531 474.820313 C 879.019531 474.820313 872.160156 466.140625 869.429688 442.390625 C 866.683594 418.640625 853.894531 399.910156 835.167969 390.320313 C 816.441406 380.730469 780.027344 367.839844 780.027344 367.839844 Z M 436.867188 249.628906 C 436.867188 249.628906 463.816406 312.210938 504.46875 322.71875 C 507.667969 353.320313 511.320313 356.058594 511.320313 356.058594 C 511.320313 356.058594 509.492188 387.121094 521.367188 399 C 533.246094 410.871094 533.246094 415.898438 532.332031 427.320313 C 531.417969 438.730469 524.566406 446.5 524.566406 452.441406 C 479.347656 408.128906 463.816406 377.070313 461.988281 338.699219 C 493.050781 410.871094 509.035156 431.890625 518.628906 431.890625 C 528.222656 431.890625 529.136719 416.808594 525.9375 414.070313 C 520 410.871094 510.40625 413.609375 509.949219 406.308594 C 509.496094 399 508.578125 393.519531 498.074219 385.289063 C 487.566406 377.070313 470.667969 351.488281 471.125 341.898438 C 471.582031 332.308594 455.140625 296.230469 450.570313 286.628906 C 446.003906 277.039063 436.867188 249.628906 436.867188 249.628906 Z M 459.707031 271.101563 C 459.707031 271.101563 514.515625 322.71875 572.527344 266.988281 C 573.441406 275.671875 567.960938 275.210938 565.675781 288 C 563.390625 300.789063 563.847656 308.101563 563.847656 308.101563 C 563.847656 308.101563 588.054688 291.199219 603.128906 276.589844 C 618.203125 261.96875 631.449219 228.621094 643.78125 223.601563 C 632.363281 246.890625 623.683594 258.308594 612.265625 276.128906 C 600.847656 293.941406 581.207031 317.691406 567.960938 323.628906 C 606.785156 313.121094 615.921875 298.960938 627.796875 286.179688 C 616.832031 311.75 585.773438 329.570313 585.773438 329.570313 C 585.773438 329.570313 573.441406 330.941406 575.269531 337.339844 C 577.09375 343.730469 594.910156 346.46875 627.796875 324.539063 C 613.179688 341.898438 592.625 354.230469 570.242188 349.210938 C 547.863281 344.179688 528.675781 364.28125 537.8125 398.078125 C 523.195313 395.800781 520.453125 377.070313 536.898438 352.410156 C 553.34375 327.738281 556.082031 318.148438 552.886719 304.441406 C 536.441406 305.359375 531.875 327.738281 518.628906 340.070313 C 517.714844 323.179688 509.035156 315.410156 502.640625 312.671875 C 496.246094 309.929688 479.34375 303.988281 487.566406 304.898438 C 495.792969 305.820313 505.382813 303.988281 501.269531 300.789063 C 497.160156 297.601563 484.371094 294.398438 473.867188 287.089844 C 463.359375 279.78125 459.707031 271.101563 459.707031 271.101563 Z M 509.300781 308.449219 C 509.300781 308.449219 498.976563 296.71875 509.769531 296.71875 C 520.5625 296.71875 535.347656 296.949219 530.890625 306.570313 C 526.429688 316.191406 523.617188 319.011719 519.625 319.25 C 515.636719 319.480469 509.300781 308.449219 509.300781 308.449219 Z M 445.988281 429.851563 C 435.042969 429.589844 413.941406 447.828125 410.554688 460.601563 C 402.21875 463.460938 398.828125 478.308594 398.828125 478.308594 C 398.828125 478.308594 405.605469 474.929688 412.378906 470.5 C 419.152344 466.070313 430.355469 461.898438 430.355469 461.898438 C 430.355469 461.898438 426.707031 461.898438 420.976563 457.730469 C 415.246094 453.558594 458.753906 434.808594 458.753906 434.808594 C 458.753906 434.808594 458.230469 443.660156 449.894531 451.738281 C 441.558594 459.820313 443.121094 463.460938 448.332031 475.179688 C 432.957031 475.710938 422.539063 484.570313 422.539063 484.570313 C 422.539063 484.570313 428.011719 489.519531 441.820313 489.519531 C 455.625 489.519531 459.273438 481.699219 459.273438 481.699219 C 459.273438 481.699219 460.574219 485.609375 457.710938 505.929688 C 454.847656 526.25 472.300781 520.261719 472.300781 520.261719 C 472.300781 520.261719 468.390625 515.050781 465.265625 504.371094 C 462.140625 493.679688 474.90625 491.339844 474.644531 480.921875 C 474.386719 470.5 467.089844 468.410156 465.003906 452.78125 C 479.074219 456.941406 494.964844 477.269531 491.839844 500.71875 C 488.714844 524.171875 476.730469 549.699219 471.78125 569.238281 C 466.828125 588.777344 464.222656 592.167969 456.929688 587.996094 C 443.121094 579.917969 434.523438 561.941406 434.523438 561.941406 C 434.523438 561.941406 444.945313 562.722656 450.9375 567.152344 C 448.070313 553.605469 434.523438 559.335938 432.699219 549.699219 C 430.875 540.058594 432.699219 536.671875 427.488281 535.109375 C 422.277344 533.550781 413.941406 536.410156 418.890625 528.859375 C 423.839844 521.300781 420.714844 514.269531 413.160156 510.101563 C 410.816406 497.070313 407.6875 500.199219 402.476563 497.070313 C 398.570313 489.78125 387.886719 492.121094 382.414063 499.941406 C 364.699219 470.230469 353.757813 447.308594 353.757813 447.308594 C 353.757813 447.308594 331.351563 408.488281 332.394531 379.050781 C 353.496094 402.761719 377.207031 412.140625 396.484375 416.039063 C 363.398438 397.808594 346.460938 378 354.277344 380.089844 C 405.605469 381.390625 425.144531 378.269531 428.53125 395.460938 C 434.785156 384.78125 435.824219 385.558594 435.824219 385.558594 C 435.824219 385.558594 440.773438 407.191406 444.683594 415.78125 C 448.59375 424.378906 445.988281 429.328125 445.988281 429.851563 Z M 627.578125 577.316406 C 627.578125 577.316406 643.734375 574.710938 655.457031 570.019531 C 667.179688 565.332031 678.125 566.113281 687.5 570.019531 C 677.339844 570.019531 665.878906 571.582031 666.136719 576.273438 C 686.460938 576.792969 704.695313 596.074219 707.824219 606.753906 C 710.949219 617.4375 704.175781 622.390625 679.945313 606.234375 C 655.71875 590.082031 646.335938 580.703125 627.578125 577.316406 Z M 522.324219 650.265625 C 522.324219 650.265625 528.316406 645.050781 544.730469 649.222656 C 561.140625 653.390625 578.078125 651.828125 572.085938 649.742188 C 566.09375 647.660156 563.488281 645.835938 567.65625 644.011719 C 571.824219 642.1875 567.65625 636.457031 574.949219 636.457031 C 582.246094 636.457031 590.84375 654.695313 590.84375 654.695313 C 590.84375 654.695313 599.4375 655.738281 599.699219 658.601563 C 599.960938 661.46875 565.050781 667.980469 581.984375 657.820313 C 580.421875 654.433594 574.6875 658.34375 571.824219 661.988281 C 568.960938 665.636719 558.277344 677.097656 554.109375 673.453125 C 549.941406 669.804688 537.695313 660.6875 532.746094 657.039063 C 527.792969 653.390625 522.582031 650.003906 522.324219 650.265625 Z M 533.191406 678.421875 C 533.191406 678.421875 537.113281 691.828125 528.285156 700.003906 C 519.457031 708.179688 511.605469 724.527344 522.398438 728.453125 C 522.398438 736.953125 521.417969 745.785156 525.339844 745.457031 C 527.957031 729.433594 539.074219 697.0625 554.445313 683.652344 C 569.8125 670.246094 596.953125 658.800781 616.574219 687.25 C 606.109375 687.902344 610.035156 695.75 607.417969 700.65625 C 604.804688 705.5625 599.570313 710.140625 599.570313 710.140625 C 599.570313 710.140625 590.414063 703.925781 590.742188 697.714844 C 588.78125 704.910156 591.394531 720.933594 594.992188 724.203125 C 592.050781 731.066406 586.816406 731.722656 586.816406 731.722656 C 586.816406 731.722656 580.605469 717.660156 583.546875 710.140625 C 580.277344 726.488281 575.046875 733.683594 575.046875 733.683594 C 575.046875 733.683594 576.351563 749.058594 569.484375 751.671875 C 577.660156 766.058594 577.335938 770.636719 575.375 777.828125 C 565.5625 781.425781 557.0625 780.773438 557.0625 780.773438 C 557.0625 780.773438 558.042969 772.269531 543.980469 769 C 529.921875 765.730469 508.335938 762.132813 502.125 747.746094 C 508.992188 769 510.628906 765.730469 518.148438 768.34375 C 525.667969 770.960938 537.765625 786.660156 541.691406 798.101563 C 538.09375 805.953125 538.097656 807.585938 535.804688 806.929688 C 533.515625 806.277344 532.863281 799.738281 524.6875 793.523438 C 516.511719 787.3125 503.757813 786.332031 505.394531 770.308594 C 499.179688 760.5 481.195313 725.179688 480.871094 721.585938 C 480.542969 717.988281 474.328125 673.191406 483.484375 657.492188 C 492.640625 641.796875 510.300781 646.046875 512.589844 648.007813 C 496.894531 654.222656 491.664063 664.6875 490.351563 672.535156 C 506.375 659.457031 509.316406 648.988281 517.492188 651.933594 C 525.667969 654.875 549.539063 673.515625 549.539063 677.4375 C 549.539063 681.363281 543.65625 684.304688 540.058594 681.035156 C 536.460938 677.765625 533.191406 678.421875 533.191406 678.421875 Z M 496.894531 708.832031 C 497.546875 707.195313 512.261719 688.886719 520.765625 688.230469 C 522.726563 683.652344 519.457031 681.363281 514.878906 681.691406 C 510.300781 682.019531 508.339844 672.535156 509.644531 663.378906 C 502.777344 665.339844 500.492188 676.785156 500.816406 679.402344 C 492.96875 678.421875 490.351563 678.75 490.679688 683.980469 C 491.007813 689.210938 487.738281 700.332031 491.988281 696.734375 C 496.238281 693.136719 492.644531 684.308594 499.507813 683.652344 C 506.375 683 511.605469 689.214844 506.046875 691.828125 C 500.492188 694.445313 495.910156 715.046875 496.894531 708.832031 Z M 481.714844 770.273438 C 476.652344 774.996094 474.117188 780.507813 476.050781 782.578125 C 477.984375 784.648438 483.65625 782.5 488.714844 777.777344 C 493.777344 773.050781 496.3125 767.542969 494.378906 765.472656 C 492.445313 763.402344 486.773438 765.550781 481.714844 770.273438 Z M 412.714844 702.035156 C 412.714844 702.035156 424.472656 694.683594 441.746094 685.863281 C 459.019531 677.042969 461.59375 652.050781 471.886719 642.496094 C 478.867188 645.804688 484.75 648.742188 484.75 648.742188 C 484.75 648.742188 474.457031 651.316406 474.457031 669.324219 C 474.457031 687.332031 476.664063 718.207031 466.742188 725.191406 C 474.457031 729.96875 478.132813 732.171875 479.972656 738.421875 C 486.585938 742.464844 486.21875 749.445313 486.21875 752.019531 C 491.730469 753.488281 494.304688 757.164063 492.835938 759.003906 C 491.363281 760.839844 483.648438 757.164063 479.238281 764.148438 C 474.828125 771.128906 465.636719 781.054688 457.550781 781.421875 C 449.464844 781.789063 471.152344 759 479.972656 756.796875 C 478.132813 752.019531 456.816406 763.410156 450.566406 774.070313 C 444.320313 784.730469 437.335938 779.21875 446.15625 766.351563 C 454.980469 753.488281 464.535156 745.035156 462.332031 742.097656 C 451.671875 748.34375 441.378906 761.207031 437.703125 774.441406 C 427.78125 775.171875 419.695313 767.824219 428.515625 756.796875 C 437.335938 745.769531 443.953125 735.847656 437.335938 725.191406 C 430.722656 714.53125 411.976563 701.667969 412.714844 702.035156 Z M 226.457031 712.222656 C 226.457031 712.222656 210.375 739.4375 196.023438 750.324219 C 181.675781 761.210938 166.089844 744.386719 182.664063 732.015625 C 170.296875 734.492188 163.121094 733.007813 168.808594 721.625 C 174.5 710.242188 191.574219 710.492188 204.933594 710.492188 C 218.292969 710.492188 226.707031 712.472656 226.457031 712.222656 Z M 417.191406 779.738281 C 416.882813 762.648438 400.101563 758.070313 384.535156 753.796875 C 368.96875 749.523438 345.46875 741.285156 337.53125 726.023438 C 330.511719 727.242188 327.765625 737.621094 332.957031 747.996094 C 338.144531 758.375 343.636719 759.289063 345.164063 772.414063 C 323.796875 766.308594 321.664063 733.652344 318.609375 705.878906 C 315.558594 678.105469 296.941406 676.582031 286.566406 673.222656 C 276.1875 669.867188 280.460938 677.191406 273.746094 680.855469 C 267.03125 684.515625 274.355469 686.042969 283.816406 689.398438 C 293.277344 692.757813 301.824219 697.640625 303.960938 697.640625 C 306.097656 697.640625 300.296875 701.304688 281.984375 697.335938 C 263.675781 693.367188 267.03125 694.589844 264.589844 714.730469 C 267.335938 701.300781 262.453125 698.25 251.160156 698.25 C 258.183594 695.503906 261.230469 680.242188 261.230469 680.242188 C 261.230469 680.242188 269.777344 678.71875 268.863281 672.613281 C 267.03125 666.203125 272.828125 658.878906 277.40625 659.796875 C 281.984375 660.710938 285.34375 658.878906 301.519531 666.207031 C 317.691406 673.53125 339.363281 698.25 348.824219 714.730469 C 358.285156 731.210938 384.839844 736.707031 389.722656 739.148438 C 394.605469 741.589844 422.988281 754.40625 429.703125 745.863281 C 436.417969 737.316406 429.703125 723.582031 425.738281 719.308594 C 421.769531 715.035156 419.632813 716.5625 409.558594 706.492188 C 399.488281 696.421875 346.078125 643.925781 337.839844 636.601563 C 329.597656 629.277344 319.527344 638.738281 314.949219 638.125 C 310.367188 637.515625 316.472656 628.664063 325.019531 628.96875 C 333.566406 629.277344 337.226563 617.984375 331.734375 614.933594 C 326.238281 611.878906 323.492188 617.371094 317.082031 622.257813 C 310.675781 627.140625 296.023438 649.722656 282.902344 651.25 C 269.777344 652.777344 260.316406 642.09375 253.90625 637.210938 C 249.707031 634.011719 249.441406 631.335938 251.296875 628.667969 C 258.417969 633.308594 267.578125 638.859375 275.574219 642.398438 C 291.445313 649.421875 310.675781 620.425781 322.578125 611.574219 C 334.480469 602.722656 343.636719 592.652344 366.222656 592.652344 C 388.808594 592.652344 409.253906 575.5625 404.984375 561.214844 C 395.828125 568.542969 386.363281 573.117188 369.882813 578.613281 C 372.019531 573.117188 386.363281 558.773438 401.015625 555.417969 C 415.664063 552.058594 428.789063 547.480469 427.875 541.378906 C 419.632813 534.359375 402.847656 541.988281 386.671875 549.308594 C 370.496094 556.636719 372.9375 556.941406 366.832031 553.890625 C 366.21875 548.089844 395.519531 533.75 406.203125 527.640625 C 416.882813 521.539063 416.582031 516.050781 410.476563 513.609375 C 404.371094 511.160156 384.839844 518.179688 349.128906 541.070313 C 344.855469 536.191406 371.714844 517.878906 402.539063 504.140625 C 383.3125 499.570313 372.019531 508.410156 346.6875 526.429688 C 342.71875 522.761719 354.625 509.03125 374.765625 499.261719 C 359.507813 497.121094 346.382813 503.839844 339.363281 512.691406 C 332.34375 521.539063 322.273438 523.980469 319.527344 528.25 C 296.636719 579.222656 239.257813 620.425781 239.257813 620.425781 C 239.257813 620.425781 240.335938 621.214844 242.1875 622.511719 C 233.859375 624.050781 227.519531 612.6875 216.671875 610.046875 C 205.378906 607.300781 201.71875 617.371094 192.5625 641.484375 C 206.601563 637.820313 218.199219 623.78125 218.199219 623.78125 C 218.199219 623.78125 203.242188 648.503906 192.257813 655.523438 C 212.398438 659.796875 226.132813 656.742188 226.132813 656.742188 C 208.429688 661.933594 191.339844 661.933594 191.339844 661.933594 C 191.339844 661.933594 178.828125 667.121094 194.394531 668.035156 C 209.957031 668.953125 225.523438 666.511719 225.523438 666.511719 C 225.523438 666.511719 225.21875 673.53125 233.457031 673.53125 C 241.699219 673.53125 245.058594 672.917969 245.058594 672.917969 C 245.058594 672.917969 244.753906 680.546875 250.855469 681.769531 C 241.089844 685.738281 234.679688 680.242188 234.679688 680.242188 C 234.679688 680.242188 222.472656 671.699219 205.992188 673.835938 C 189.511719 675.96875 162.347656 684.210938 163.261719 701.914063 C 165.398438 709.847656 182.792969 703.746094 190.121094 701.304688 C 197.445313 698.859375 229.492188 706.796875 233.152344 707.40625 C 223.386719 734.265625 207.820313 747.996094 207.820313 747.996094 C 207.820313 747.996094 195.613281 762.648438 208.128906 778.519531 C 220.640625 794.386719 231.929688 803.546875 232.847656 812.089844 C 233.765625 788.285156 230.710938 784.316406 228.269531 771.804688 C 225.828125 759.289063 229.183594 748.304688 229.183594 748.304688 C 229.183594 748.304688 236.511719 758.070313 236.511719 771.5 C 236.511719 784.925781 243.53125 798.660156 243.53125 798.660156 C 243.53125 798.660156 251.464844 787.980469 251.464844 779.738281 C 251.464844 771.5 243.835938 729.988281 255.738281 714.730469 C 258.179688 747.695313 263.675781 764.480469 262.148438 781.570313 C 260.621094 798.660156 256.65625 811.171875 263.980469 819.71875 C 271.304688 828.265625 289.921875 837.421875 296.636719 827.351563 C 303.347656 817.277344 289.3125 801.714844 281.984375 787.0625 C 274.660156 772.414063 274.660156 765.394531 275.574219 751.050781 C 287.480469 767.835938 293.582031 791.945313 293.582031 796.523438 C 293.582031 801.105469 299.078125 829.792969 347.605469 833.761719 C 396.132813 837.726563 478.535156 824.910156 500.511719 780.65625 C 498.679688 773.632813 499.59375 777.601563 490.132813 785.234375 C 480.671875 792.863281 446.1875 791.03125 444.660156 790.113281 C 443.132813 789.199219 437.335938 784.316406 430.925781 781.265625 C 424.515625 778.214844 417.191406 779.738281 417.191406 779.738281 Z M 207.519531 579.9375 C 207.519531 579.9375 205.773438 598.25 218.855469 597.8125 C 231.933594 597.378906 234.550781 585.167969 234.550781 585.167969 C 234.550781 585.167969 255.476563 592.148438 262.019531 587.785156 C 268.558594 583.425781 296.898438 539.820313 311.289063 534.589844 C 304.746094 526.75 285.5625 537.210938 273.355469 539.390625 C 261.148438 541.570313 255.914063 538.078125 255.914063 538.078125 C 255.914063 538.078125 264.636719 531.539063 292.101563 525 C 319.570313 518.460938 326.984375 511.921875 340.0625 504.511719 C 353.144531 497.101563 367.53125 492.738281 367.53125 492.738281 C 361.863281 475.300781 358.808594 473.988281 348.78125 475.730469 C 338.753906 477.480469 304.3125 486.628906 296.027344 487.5 C 287.742188 488.371094 277.277344 492.738281 265.070313 500.148438 C 279.023438 479.21875 299.078125 478.351563 312.59375 476.609375 C 306.925781 468.320313 293.410156 468.320313 293.410156 468.320313 C 293.410156 468.320313 295.589844 459.160156 313.464844 463.089844 C 331.34375 467.011719 341.371094 470.941406 346.605469 460.039063 C 351.835938 449.140625 334.394531 439.109375 312.59375 439.109375 C 290.796875 439.109375 287.304688 432.570313 307.796875 432.570313 C 328.289063 432.570313 341.808594 436.058594 336.140625 427.769531 C 330.472656 419.488281 320.878906 401.609375 323.496094 381.121094 C 294.972656 404.179688 276.160156 428.300781 257.953125 457.441406 C 255.515625 461.339844 253.085938 465.339844 250.648438 469.429688 C 232.867188 499.28125 205.667969 546.160156 207.519531 579.9375 Z M 207.519531 579.9375 "/>
<path style=" stroke:none;fill-rule:evenodd;fill:rgb(10.594177%,9.812927%,9.423828%);fill-opacity:1;" d="M 417.15625 893.648438 C 417.15625 893.648438 423.472656 881.519531 412.480469 874.441406 C 504.839844 875.957031 504.839844 875.957031 504.839844 875.957031 C 504.839844 875.957031 498.082031 878.53125 493.914063 879.542969 C 492.625 879.863281 491.414063 880.421875 490.234375 881.019531 C 489.546875 881.367188 489.277344 881.582031 488.777344 882.148438 C 488.464844 882.503906 487.753906 882.582031 487.296875 882.722656 C 486.210938 883.058594 485.074219 883.699219 483.976563 884.128906 C 482.875 884.5625 481.808594 884.878906 480.644531 885.101563 C 478.253906 885.539063 475.996094 885.699219 473.582031 885.902344 C 472.96875 885.953125 472.613281 885.96875 472.105469 886.324219 C 471.519531 886.726563 470.695313 886.441406 470.046875 886.332031 C 469.101563 886.167969 468.445313 886.183594 467.488281 886.238281 C 466.601563 886.292969 466.027344 886.523438 465.871094 887.464844 C 465.820313 887.757813 465.828125 887.808594 465.578125 887.566406 C 464.75 886.761719 464.507813 886.390625 463.226563 886.402344 C 462.742188 886.414063 462.242188 886.4375 461.757813 886.453125 C 460.90625 886.488281 460.648438 886.582031 459.867188 886.761719 C 459.292969 886.894531 458.746094 886.78125 458.347656 886.867188 C 458.007813 886.941406 458.234375 887.035156 457.714844 886.972656 C 456.851563 886.867188 456.128906 886.683594 455.21875 886.632813 C 454.199219 886.574219 452.957031 886.640625 451.914063 886.648438 C 448.960938 886.683594 446.007813 886.699219 443.054688 886.699219 C 443.054688 886.699219 440.65625 886.445313 437.242188 891.375 C 433.832031 896.300781 422.460938 914.117188 422.460938 914.117188 C 422.460938 914.117188 417.535156 919.804688 422.964844 919.929688 C 428.398438 920.054688 468.832031 919.425781 468.832031 919.425781 C 465.453125 920.878906 462.097656 922.191406 458.667969 923.511719 C 457.652344 923.902344 457.222656 924.128906 456.375 924.773438 C 455.921875 925.121094 455.660156 925.039063 455.105469 925.109375 C 453.625 925.292969 452.152344 925.855469 450.75 926.363281 C 450.117188 926.59375 449.816406 926.8125 449.253906 927.082031 C 448.480469 927.449219 445.582031 927.609375 445.566406 928.585938 C 445.5625 928.738281 445.613281 928.835938 445.667969 928.96875 C 445.734375 929.101563 445.757813 929.105469 445.46875 929.144531 C 444.273438 929.304688 443.578125 928.800781 442.117188 929.164063 C 441.375 929.347656 440.628906 929.578125 439.882813 929.769531 C 439.136719 929.960938 438.394531 930.164063 437.648438 930.355469 C 437.019531 930.519531 434.9375 931.089844 434.457031 931.375 C 434.015625 931.636719 434.171875 931.636719 433.59375 931.636719 C 432.414063 931.636719 431.660156 931.628906 430.476563 931.78125 C 429.226563 931.945313 428.019531 932.054688 426.757813 932.058594 C 413.996094 932.058594 408.5625 932.691406 406.792969 935.46875 C 405.023438 938.25 392.265625 959.222656 392.265625 959.222656 C 392.265625 959.222656 389.738281 963.015625 393.148438 962.886719 C 395.878906 962.785156 398.660156 962.59375 401.394531 962.4375 C 421.261719 961.3125 441.125 960.140625 460.992188 958.972656 C 460.996094 958.972656 460.078125 959.351563 459.742188 959.492188 C 456.230469 960.925781 452.632813 962.324219 449.070313 963.617188 C 448.441406 963.835938 447.765625 963.949219 447.191406 964.160156 C 445.859375 964.648438 446.351563 965.902344 446.089844 966.03125 C 445.96875 966.089844 444.78125 965.6875 444.484375 965.644531 C 444.011719 965.578125 443.457031 965.628906 443.085938 965.949219 C 442.972656 966.046875 442.910156 966.078125 442.78125 966.148438 C 442.242188 966.390625 441.933594 966.34375 441.445313 966.722656 C 438.65625 968.859375 437.535156 970.183594 433.851563 970.527344 L 433.597656 970.550781 C 433.269531 970.578125 432.976563 970.613281 432.652344 970.667969 C 431.875 970.835938 431.285156 970.917969 430.5 971 C 429.644531 971.089844 428.902344 971.351563 429.15625 972.367188 C 429.203125 972.546875 429.226563 972.527344 429.011719 972.417969 C 428.320313 972.074219 427.996094 971.625 427.109375 971.542969 C 426.488281 971.484375 425.699219 971.679688 425.089844 971.828125 C 424.691406 971.925781 424.292969 972.027344 423.890625 972.125 C 422.871094 972.367188 422.414063 972.441406 421.359375 972.523438 C 420.058594 972.625 419.167969 972.796875 417.910156 973.074219 C 414.199219 973.898438 410.445313 974.585938 406.667969 975.015625 C 392.578125 976.609375 382.5 977.75 377.574219 976.132813 C 369.917969 973.621094 378.035156 960.054688 380.363281 955.421875 C 384.039063 948.105469 389.210938 939.292969 395.929688 928.898438 C 402.644531 918.507813 417.15625 893.648438 417.15625 893.648438 Z M 615.753906 947.683594 C 615.753906 947.683594 633.265625 936.183594 635.839844 936.355469 C 638.242188 932.578125 644.082031 930.6875 644.082031 930.6875 C 644.082031 930.6875 661.765625 919.359375 658.160156 914.894531 C 654.554688 910.429688 642.019531 901.847656 638.414063 903.734375 C 634.808594 905.625 615.925781 917.640625 605.96875 947.171875 C 604.765625 955.410156 603.394531 971.207031 606.3125 969.316406 C 609.230469 967.429688 651.636719 944.078125 656.269531 942.707031 C 639.445313 944.765625 614.722656 957.300781 614.722656 957.300781 C 612.664063 953.523438 615.753906 947.683594 615.753906 947.683594 Z M 619.703125 940.476563 C 619.703125 940.476563 635.839844 916.097656 642.363281 918.15625 C 648.886719 920.214844 619.703125 940.476563 619.703125 940.476563 Z M 561.160156 905.796875 L 583.820313 905.796875 C 583.820313 905.796875 604.421875 876.4375 606.65625 876.609375 C 608.886719 876.78125 621.246094 887.253906 617.8125 890.34375 C 614.378906 893.433594 602.019531 906.308594 604.9375 906.480469 C 607.855469 906.652344 612.492188 905.96875 612.492188 905.96875 C 612.492188 905.96875 619.875 909.230469 625.710938 905.96875 C 621.933594 910.773438 619.703125 912.492188 619.703125 912.492188 L 598.757813 911.804688 C 598.757813 911.804688 583.132813 924.164063 583.132813 927.769531 C 579.359375 931.203125 578.84375 933.949219 578.5 935.152344 C 578.15625 936.355469 577.46875 939.101563 577.296875 940.132813 C 577.125 941.160156 570.945313 949.746094 570.601563 951.976563 C 570.257813 954.210938 563.5625 966.914063 559.957031 969.660156 C 559.957031 958.5 562.703125 944.765625 566.480469 937.554688 C 570.257813 930.34375 578.328125 914.550781 578.328125 914.550781 C 578.328125 914.550781 574.894531 912.664063 573.175781 914.894531 C 571.460938 917.125 564.9375 918.671875 563.90625 917.125 C 562.875 915.582031 559.957031 913.519531 560.128906 911.117188 C 560.300781 908.714844 561.160156 905.796875 561.160156 905.796875 Z M 539.355469 893.433594 C 539.355469 893.433594 544.851563 889.828125 549.140625 888.96875 C 553.433594 888.113281 555.835938 885.707031 557.554688 882.960938 C 559.269531 880.214844 562.875 880.386719 566.308594 881.933594 C 569.742188 883.476563 578.15625 888.113281 573.863281 891.203125 C 569.570313 894.292969 556.523438 894.121094 555.152344 894.121094 C 553.777344 894.121094 553.089844 895.839844 552.230469 894.121094 C 551.375 892.40625 539.355469 893.433594 539.355469 893.433594 Z M 510.515625 970.003906 C 510.515625 969.144531 509.484375 936.527344 540.386719 905.96875 C 552.230469 911.632813 552.058594 913.347656 552.058594 913.347656 C 552.058594 913.347656 540.730469 927.253906 539.527344 929.316406 C 538.324219 931.375 537.46875 931.890625 535.75 933.949219 C 534.035156 936.011719 532.660156 939.960938 532.660156 939.960938 C 530.601563 941.847656 530.085938 945.109375 528.539063 946.3125 C 526.996094 947.511719 523.046875 952.492188 521.84375 955.238281 C 520.644531 957.984375 519.613281 961.246094 517.550781 963.136719 C 515.492188 965.023438 510.515625 970.003906 510.515625 970.003906 Z M 523.21875 868.367188 L 539.527344 882.445313 C 539.527344 882.445313 531.457031 887.082031 529.570313 886.910156 C 508.109375 909.914063 493.859375 922.792969 495.0625 924.335938 C 491.457031 926.570313 487.507813 932.578125 487.851563 935.324219 C 482.875 939.445313 482.015625 941.847656 482.53125 944.078125 C 478.753906 948.542969 479.441406 953.523438 483.386719 952.492188 C 487.335938 951.460938 499.699219 943.394531 503.988281 942.878906 C 493.175781 953.351563 468.796875 969.832031 464.675781 969.316406 C 460.554688 968.800781 475.320313 930.6875 492.488281 907.167969 C 501.261719 895.148438 510.566406 883.183594 520.207031 871.851563 C 521.199219 870.6875 522.203125 869.515625 523.21875 868.367188 Z M 523.21875 868.367188 "/>
<path style=" stroke:none;fill-rule:evenodd;fill:rgb(10.594177%,9.812927%,9.423828%);fill-opacity:1;" d="M 237.046875 988.046875 L 266.472656 988.046875 C 275.996094 988.046875 283.785156 995.835938 283.785156 1005.363281 C 283.785156 1011.136719 279.21875 1018.320313 274.835938 1021.472656 C 281.792969 1023.71875 286.859375 1032.316406 286.859375 1039.992188 L 286.859375 1043.53125 C 286.859375 1053.054688 279.066406 1060.84375 269.542969 1060.84375 L 237.046875 1060.84375 L 237.046875 988.042969 Z M 740.484375 1060.847656 L 755.277344 1060.847656 L 755.277344 1012.777344 L 789.429688 1046.441406 L 789.429688 1060.847656 L 802.480469 1060.847656 L 802.480469 988.046875 L 789.429688 988.046875 L 789.429688 1028.433594 L 749.40625 988.046875 L 740.484375 988.046875 Z M 675.457031 1060.847656 L 682.527344 1040.175781 L 706.292969 1040.175781 L 714.136719 1060.847656 L 726.792969 1060.847656 L 698.839844 988.046875 L 687.316406 988.046875 L 662.136719 1060.847656 Z M 686.21875 1029.507813 L 693.789063 1007.617188 L 702.195313 1029.507813 Z M 528.109375 988.046875 L 542.621094 988.046875 L 542.621094 1060.847656 L 528.109375 1060.847656 Z M 632.664063 988.046875 L 647.175781 988.046875 L 647.175781 1060.847656 L 632.664063 1060.847656 Z M 614.957031 1060.847656 L 565.878906 1060.847656 L 565.878906 988.046875 L 580.175781 988.046875 L 580.175781 1048.925781 L 614.957031 1048.925781 Z M 448.089844 1002.410156 L 486.984375 1002.410156 L 447.074219 1053.886719 L 446.382813 1060.847656 C 466.949219 1060.847656 487.863281 1060.847656 509.757813 1060.847656 L 509.757813 1045.9375 L 471.246094 1045.9375 L 506.910156 1000.542969 L 506.984375 988.046875 L 448.089844 988.046875 Z M 385.234375 1060.847656 L 392.304688 1040.175781 L 416.070313 1040.175781 L 423.914063 1060.847656 L 436.570313 1060.847656 L 408.617188 988.046875 L 397.09375 988.046875 L 371.914063 1060.847656 Z M 395.996094 1029.507813 L 403.566406 1007.617188 L 411.972656 1029.507813 Z M 305.550781 1060.847656 L 318.355469 1060.847656 L 318.355469 1033.347656 C 318.355469 1033.347656 326.675781 1032.492188 329.878906 1039.109375 C 333.078125 1045.726563 341.1875 1063.21875 351.429688 1063.007813 C 361.671875 1062.796875 365.511719 1048.710938 365.511719 1048.710938 C 358.898438 1054.257813 355.910156 1058.097656 349.933594 1048.496094 C 343.960938 1038.898438 341.191406 1034.839844 339.054688 1033.132813 C 346.734375 1026.519531 348.675781 1021.707031 348.675781 1021.707031 C 351.59375 1018.144531 353.347656 1013.601563 353.347656 1008.671875 C 353.347656 997.328125 344.070313 988.046875 332.726563 988.046875 L 305.550781 988.046875 Z M 318.996094 1001.765625 L 328.386719 1001.765625 C 333.550781 1001.765625 337.773438 1005.992188 337.773438 1011.15625 L 337.773438 1011.582031 C 337.773438 1016.746094 333.550781 1020.972656 328.386719 1020.972656 L 318.996094 1020.972656 Z M 250.714844 1030.148438 L 263.578125 1030.148438 C 268.152344 1030.148438 271.894531 1033.890625 271.894531 1038.46875 L 271.894531 1040.820313 C 271.894531 1045.398438 268.152344 1049.140625 263.578125 1049.140625 L 250.714844 1049.140625 Z M 250.714844 1000.273438 L 260.957031 1000.273438 C 265.535156 1000.273438 269.277344 1004.019531 269.277344 1008.59375 C 269.277344 1013.171875 265.535156 1016.917969 260.957031 1016.917969 L 250.714844 1016.917969 Z M 250.714844 1000.273438 "/>
<path style=" stroke:none;fill-rule:evenodd;fill:rgb(10.594177%,9.812927%,9.423828%);fill-opacity:1;" d="M 409.488281 1147.378906 L 409.488281 1136.972656 C 407.164063 1140.679688 404.125 1143.628906 400.351563 1145.839844 C 396.582031 1148.027344 392.605469 1149.125 388.421875 1149.125 C 384.140625 1149.125 380.308594 1148.09375 376.921875 1146.039063 C 373.519531 1143.984375 371.070313 1141.082031 369.5625 1137.375 C 368.03125 1133.644531 367.277344 1128.503906 367.277344 1121.9375 L 367.277344 1077.820313 L 384.039063 1077.820313 L 384.039063 1109.851563 C 384.039063 1119.660156 384.347656 1125.644531 384.976563 1127.859375 C 385.589844 1130.066406 386.710938 1131.832031 388.363281 1133.105469 C 389.996094 1134.402344 392.074219 1135.050781 394.601563 1135.050781 C 397.476563 1135.050781 400.046875 1134.179688 402.328125 1132.457031 C 404.613281 1130.738281 406.164063 1128.59375 407 1126.023438 C 407.835938 1123.457031 408.265625 1117.203125 408.265625 1107.214844 L 408.265625 1077.820313 L 425.027344 1077.820313 L 425.027344 1147.378906 Z M 669.238281 1083.910156 L 669.238281 1094.804688 C 669.238281 1094.804688 660.648438 1088.519531 652.058594 1088.519531 C 643.46875 1088.519531 641.582031 1093.546875 641.792969 1098.15625 C 642 1102.765625 656.667969 1109.679688 667.5625 1118.898438 C 678.457031 1128.117188 677.828125 1156.191406 647.65625 1155.355469 C 636.972656 1154.308594 626.707031 1147.8125 626.707031 1147.8125 L 626.707031 1134.824219 C 626.707031 1134.824219 635.503906 1143.832031 647.867188 1143.832031 C 660.230469 1143.832031 662.324219 1136.078125 659.390625 1131.257813 C 656.457031 1126.441406 630.058594 1118.269531 627.753906 1100.671875 C 624.625 1076.769531 651.945313 1072.167969 669.238281 1083.910156 Z M 575.621094 1149.886719 L 590.945313 1149.886719 L 590.945313 1091.449219 L 615.796875 1091.449219 L 615.796875 1077.820313 L 550.765625 1077.820313 L 550.765625 1091.449219 L 575.621094 1091.449219 Z M 444.882813 1120.390625 L 469.734375 1120.390625 L 469.734375 1130.261719 L 444.882813 1130.261719 Z M 731.328125 1147.378906 L 731.328125 1136.972656 C 729.003906 1140.679688 725.964844 1143.628906 722.191406 1145.839844 C 718.417969 1148.027344 714.445313 1149.125 710.261719 1149.125 C 705.980469 1149.125 702.148438 1148.09375 698.761719 1146.039063 C 695.359375 1143.984375 692.910156 1141.082031 691.402344 1137.375 C 689.871094 1133.644531 689.117188 1128.503906 689.117188 1121.9375 L 689.117188 1077.820313 L 705.878906 1077.820313 L 705.878906 1109.851563 C 705.878906 1119.660156 706.183594 1125.644531 706.816406 1127.859375 C 707.429688 1130.066406 708.550781 1131.832031 710.203125 1133.105469 C 711.832031 1134.402344 713.914063 1135.050781 716.441406 1135.050781 C 719.316406 1135.050781 721.886719 1134.179688 724.167969 1132.457031 C 726.453125 1130.738281 728.003906 1128.59375 728.839844 1126.023438 C 729.675781 1123.457031 730.105469 1117.203125 730.105469 1107.214844 L 730.105469 1077.820313 L 746.867188 1077.820313 L 746.867188 1147.378906 Z M 499.824219 1077.820313 L 485.441406 1077.820313 L 485.441406 1186.574219 L 499.824219 1166.433594 Z M 522.519531 1077.820313 L 536.265625 1077.820313 L 536.265625 1149.886719 L 522.519531 1149.886719 Z M 308.675781 1077.820313 L 294.289063 1077.820313 L 294.289063 1186.574219 L 308.675781 1166.433594 Z M 331.371094 1077.820313 L 345.113281 1077.820313 L 345.113281 1149.886719 L 331.371094 1149.886719 Z M 331.371094 1077.820313 "/>
</g>
</svg>
